 http://www.imdb.com/title/tt0067549/

This movie is a stark portrayal of life among a group of heroin addicts who hang out in "Needle Park" in New York City. Played against this setting is a low-key love story between Bobby, a young addict and small-time hustler, and Helen, a homeless girl who finds in her relationship with Bobby the stability she craves. She becomes addicted too, and life goes downhill for them both as their addiction deepens, eventually leading to a series of betrayals. But, in spite of it all, the relationship between Bobby and Helen endures.











General
Complete name                            : E:MoviezThe panic in Needle park.avi
Format                                   : AVI
Format/Info                              : Audio Video Interleave
File size                                : 1 008 MiB
Duration                                 : 1h 45mn
Overall bit rate                         : 1 341 Kbps

Video
ID                                       : 0
Format                                   : MPEG-4 Visual
Format profile                           : Simple@L3
Format settings, BVOP                    : No
Format settings, QPel                    : No
Format settings, GMC                     : No warppoints
Format settings, Matrix                  : Default (H.263)
Codec ID                                 : XVID
Codec ID/Hint                            : XviD
Duration                                 : 1h 45mn
Bit rate                                 : 1 200 Kbps
Width                                    : 720 pixels
Height                                   : 576 pixels
Display aspect ratio                     : 5:4
Frame rate                               : 25.000 fps
Standard                                 : PAL
Color space                              : YUV
Chroma subsampling                       : 4:2:0
Bit depth                                : 8 bits
Scan type                                : Progressive
Compression mode                         : Lossy
Bits/(Pixel*Frame)                       : 0.116
Stream size                              : 902 MiB (89%)
Writing library                          : XviD 1.1.0 Beta2 (UTC 2005-04-04)

Audio
ID                                       : 1
Format                                   : MPEG Audio
Format version                           : Version 1
Format profile                           : Layer 3
Mode                                     : Joint stereo
Mode extension                           : MS Stereo
Codec ID                                 : 55
Codec ID/Hint                            : MP3
Duration                                 : 1h 45mn
Bit rate mode                            : Constant
Bit rate                                 : 128 Kbps
Channel(s)                               : 2 channels
Sampling rate                            : 48.0 KHz
Compression mode                         : Lossy
Stream size                              : 96.2 MiB (10%)
Alignment                                : Aligned on interleaves
Interleave, duration                     : 24 ms (0.60 video frame)



 
http://i.imgur.com/hqPyc.jpg
 
http://i.imgur.com/jtxLt.jpg

[URL=http://imgur.com/jtxLt][IMG]http://i.imgur.com/jtxLt.jpg[/IMG][/URL]